# xmcd CD database file
#
# Track frame offsets:
#	150
#	21397
#	40122
#	60814
#	80445
#	95100
#	116612
#	148447
#	168117
#	185125
#	201395
#	221305
#	238997
#	253102
#	272102
#	295182
#	313762
#	329922
#
# Disc length: 4603 seconds
#
# Revision: 1
# Processed by: cddbd v1.5.1PL0 Copyright (c) Steve Scherf et al.
# Submitted via: CDex 1.51
#
DISCID=1f11f912
DTITLE=The Grand Domino Jazz Band - Come Back, Sweet Papa
DYEAR=1998
DGENRE=Jazz
TTITLE0=Flat Foot
TTITLE1=Buddy Bolden's Blues
TTITLE2=Down in Honky Tonk Town
TTITLE3=Mecca Flat Blues
TTITLE4=Willie the Weeper
TTITLE5=Weary Blues
TTITLE6=Breeze
TTITLE7=Lady Love
TTITLE8=Goin' Home
TTITLE9=The bear missed the Train
TTITLE10=One sweet letter from you
TTITLE11=Pontchartrain
TTITLE12=Perdido St. Blues
TTITLE13=Bogalusa Strut
TTITLE14=Come Back, Sweet Papa
TTITLE15=Friendless Blues
TTITLE16=J'ai de la Fiévre
TTITLE17=The minor drag
EXTD=YEAR: 1998
EXTT0=
EXTT1=
EXTT2=
EXTT3=
EXTT4=
EXTT5=
EXTT6=
EXTT7=
EXTT8=
EXTT9=
EXTT10=
EXTT11=
EXTT12=
EXTT13=
EXTT14=
EXTT15=
EXTT16=
EXTT17=
PLAYORDER=
